<?xml version="1.0" standalone="no"?>
<!DOCTYPE svg PUBLIC "-//W3C//DTD SVG 20010904//EN"
 "http://www.w3.org/TR/2001/REC-SVG-20010904/DTD/svg10.dtd">
<svg version="1.0" xmlns="http://www.w3.org/2000/svg"
 width="1275.000000pt" height="125.000000pt" viewBox="0 0 1275.000000 125.000000"
 preserveAspectRatio="xMidYMid meet">
<metadata>
Created by potrace 1.16, written by Peter Selinger 2001-2019
</metadata>
<g transform="translate(0.000000,125.000000) scale(0.100000,-0.100000)"
fill="#000000" stroke="none">
<path d="M2145 1078 c-3 -7 -4 -213 -3 -458 l3 -445 350 0 350 0 0 120 0 120
-212 3 -213 2 -2 333 -3 332 -133 3 c-100 2 -134 -1 -137 -10z"/>
<path d="M3287 644 c-109 -245 -196 -452 -193 -460 5 -12 30 -14 147 -12 l141
3 28 70 28 70 187 0 187 0 28 -70 28 -70 143 0 c123 0 144 2 147 16 1 8 -85
213 -192 455 l-195 439 -143 3 -143 2 -198 -446z m382 31 c23 -58 41 -108 41
-110 0 -3 -39 -5 -86 -5 -78 0 -86 2 -80 18 22 60 80 202 82 202 1 0 21 -47
43 -105z"/>
<path d="M4485 1078 c-3 -7 -4 -213 -3 -458 l3 -445 135 0 135 0 3 228 2 229
97 -116 c91 -111 98 -116 134 -116 36 0 42 5 133 115 l96 116 2 -228 3 -228
135 0 135 0 0 455 0 455 -122 3 -121 3 -127 -161 c-70 -88 -130 -160 -134
-160 -4 0 -65 72 -135 160 l-128 160 -119 0 c-87 0 -121 -3 -124 -12z"/>
<path d="M5925 1078 c-3 -7 -4 -213 -3 -458 l3 -445 365 0 365 0 3 104 c2 67
-1 108 -9 117 -9 11 -56 14 -235 14 l-224 0 0 55 0 55 208 2 207 3 0 110 0
110 -207 3 -208 2 0 55 0 55 223 2 222 3 0 110 0 110 -353 3 c-277 2 -354 0
-357 -10z"/>
<path d="M7045 1078 c-3 -7 -4 -213 -3 -458 l3 -445 350 0 350 0 0 120 0 120
-212 3 -213 2 -2 333 -3 332 -133 3 c-100 2 -134 -1 -137 -10z"/>
<path d="M8105 1078 c-3 -7 -4 -213 -3 -458 l3 -445 135 0 135 0 0 455 0 455
-133 3 c-100 2 -134 -1 -137 -10z"/>
<path d="M8805 1078 c-3 -7 -4 -213 -3 -458 l3 -445 135 0 135 0 3 147 3 148
197 2 197 3 3 104 c2 67 -1 108 -9 117 -9 11 -51 14 -200 14 l-189 0 0 70 0
70 208 2 207 3 0 115 0 115 -343 3 c-269 2 -344 0 -347 -10z"/>
<path d="M9885 1078 c-3 -7 -4 -213 -3 -458 l3 -445 365 0 365 0 3 104 c2 67
-1 108 -9 117 -9 11 -56 14 -235 14 l-224 0 0 55 0 55 208 2 207 3 0 110 0
110 -207 3 -208 2 0 55 0 55 223 2 222 3 0 110 0 110 -353 3 c-277 2 -354 0
-357 -10z"/>
</g>
</svg>
